<svg width="261.51874999999995px" height="94.39999999999999px" xmlns="http://www.w3.org/2000/svg" viewBox="119.24062500000002 27.800000000000004 261.51874999999995 94.39999999999999" style="background: none;" preserveAspectRatio="xMidYMid"><defs><linearGradient id="editing-outline-gradient" x1="0.43024352625587453" x2="0.5697564737441254" y1="-0.4975640502598242" y2="1.4975640502598242"><stop offset="0" stop-color="#008fd4"></stop><stop offset="1" stop-color="#4a2bc1"></stop></linearGradient><filter id="editing-outline" x="-100%" y="-100%" width="300%" height="300%"><feMorphology in="SourceGraphic" operator="dilate" radius="2" result="outline"></feMorphology><feComposite operator="out" in="outline" in2="SourceAlpha"></feComposite></filter></defs><g filter="url(#editing-outline)"><g transform="translate(161.54383239150047, 92.63500213623047)"><path d="M8.84-23.46L8.84-23.46L8.84-23.46Q12.85-9.16 14.11-5.37L14.11-5.37L14.11-5.37Q14.61-6.87 16.83-14.56L16.83-14.56L16.83-14.56Q19.06-22.24 19.33-23.29L19.33-23.29L19.33-23.29Q19.63-24.17 19.71-25.06L19.71-25.06L19.71-25.06Q19.79-25.96 19.77-26.39L19.77-26.39L19.77-26.39Q19.75-26.83 19.97-27.21L19.97-27.21L19.97-27.21Q20.19-27.59 20.84-27.72L20.84-27.72L20.84-27.72Q21.50-27.84 22.87-27.84L22.87-27.84L22.87-27.84Q23.92-27.84 24.43-27.70L24.43-27.70L24.43-27.70Q24.95-27.56 25.12-27.16L25.12-27.16L25.12-27.16Q25.29-26.77 25.29-26.34L25.29-26.34L25.29-26.34Q25.29-25.90 25.39-25.05L25.39-25.05L25.39-25.05Q25.50-24.20 25.80-23.40L25.80-23.40L25.80-23.40Q26.17-22.17 28.65-14.03L28.65-14.03L28.65-14.03Q31.14-5.88 31.29-5.37L31.29-5.37L31.29-5.37Q31.73-6.95 33.73-14.66L33.73-14.66L33.73-14.66Q35.74-22.38 35.80-22.70L35.80-22.70L35.80-22.70Q35.82-22.78 35.91-23.13L35.91-23.13L35.91-23.13Q35.99-23.48 36.05-23.78L36.05-23.78L36.05-23.78Q36.11-24.07 36.11-24.17L36.11-24.17L36.11-24.17Q36.11-24.55 35.42-24.64L35.42-24.64L35.42-24.64Q34.73-24.74 34.05-24.87L34.05-24.87L34.05-24.87Q33.36-25.00 33.36-25.46L33.36-25.46L33.36-25.46Q33.59-28.01 33.88-28.66L33.88-28.66L33.88-28.66Q35.80-28.51 38.58-28.51L38.58-28.51L38.58-28.51Q41.57-28.51 43.91-28.66L43.91-28.66L43.91-28.66Q44.24-28.45 44.24-27.78L44.24-27.78L44.24-27.78Q44.24-26.95 43.93-25.61L43.93-25.61L43.93-25.61Q43.78-25.16 43.13-24.93L43.13-24.93L43.13-24.93Q42.48-24.70 41.69-24.70L41.69-24.70L41.69-24.70Q40.96-24.70 40.61-24.38L40.61-24.38L40.61-24.38Q40.26-24.07 40.03-23.50L40.03-23.50L35.04-4.63L35.04-4.63Q34.77-3.60 34.62-3.03L34.62-3.03L34.62-3.03Q34.47-2.46 34.24-1.85L34.24-1.85L34.24-1.85Q34.01-1.24 33.90-0.97L33.90-0.97L33.90-0.97Q33.78-0.70 33.51-0.41L33.51-0.41L33.51-0.41Q33.23-0.11 33.09-0.04L33.09-0.04L33.09-0.04Q32.94 0.04 32.53 0.12L32.53 0.12L32.53 0.12Q32.11 0.21 31.83 0.21L31.83 0.21L31.83 0.21Q31.55 0.21 30.93 0.21L30.93 0.21L30.93 0.21Q30.35 0.21 30.08 0.21L30.08 0.21L30.08 0.21Q29.80 0.21 29.43 0.11L29.43 0.11L29.43 0.11Q29.06 0.02 28.93-0.02L28.93-0.02L28.93-0.02Q28.79-0.06 28.55-0.35L28.55-0.35L28.55-0.35Q28.30-0.65 28.21-0.82L28.21-0.82L28.21-0.82Q28.13-0.99 27.91-1.57L27.91-1.57L27.91-1.57Q27.69-2.15 27.57-2.54L27.57-2.54L27.57-2.54Q27.46-2.93 27.17-3.88L27.17-3.88L22.26-20.57L17.35-3.68L17.35-3.68Q17.02-2.59 16.85-2.04L16.85-2.04L16.85-2.04Q16.68-1.49 16.42-0.97L16.42-0.97L16.42-0.97Q16.15-0.46 15.99-0.28L15.99-0.28L15.99-0.28Q15.82-0.10 15.40 0.05L15.40 0.05L15.40 0.05Q14.97 0.19 14.64 0.20L14.64 0.20L14.64 0.20Q14.32 0.21 13.56 0.21L13.56 0.21L13.56 0.21Q13.04 0.21 12.78 0.21L12.78 0.21L12.78 0.21Q12.51 0.21 12.19 0.12L12.19 0.12L12.19 0.12Q11.86 0.04 11.72-0.01L11.72-0.01L11.72-0.01Q11.58-0.06 11.36-0.32L11.36-0.32L11.36-0.32Q11.14-0.59 11.05-0.75L11.05-0.75L11.05-0.75Q10.97-0.91 10.77-1.44L10.77-1.44L10.77-1.44Q10.57-1.96 10.46-2.32L10.46-2.32L10.46-2.32Q10.36-2.69 10.11-3.54L10.11-3.54L10.11-3.54Q10.04-3.73 9.93-4.14L9.93-4.14L9.93-4.14Q9.83-4.55 9.77-4.72L9.77-4.72L4.09-23.50L4.09-23.50Q3.85-24.09 3.50-24.39L3.50-24.39L3.50-24.39Q3.16-24.70 2.44-24.70L2.44-24.70L2.44-24.70Q1.64-24.70 0.97-24.93L0.97-24.93L0.97-24.93Q0.30-25.16 0.15-25.61L0.15-25.61L0.15-25.61Q0.17-25.86 0.17-26.46L0.17-26.46L0.17-26.46Q0.17-27.06 0.19-27.42L0.19-27.42L0.19-27.42Q0.21-27.78 0.30-28.16L0.30-28.16L0.30-28.16Q0.38-28.55 0.55-28.66L0.55-28.66L0.55-28.66Q2.80-28.51 5.73-28.51L5.73-28.51L5.73-28.51Q8.66-28.51 10.85-28.66L10.85-28.66L10.85-28.66Q11.20-27.90 11.37-25.46L11.37-25.46L11.37-25.46Q11.37-25.00 10.69-24.87L10.69-24.87L10.69-24.87Q10.02-24.74 9.34-24.64L9.34-24.64L9.34-24.64Q8.66-24.55 8.66-24.17L8.66-24.17L8.66-24.17Q8.66-23.90 8.84-23.46ZM63.03-11.25L63.03-11.25L63.03-11.25Q63.03-10.38 62.58-9.91L62.58-9.91L62.58-9.91Q62.14-9.45 60.90-9.45L60.90-9.45L47.76-9.45L47.76-9.45Q47.84-7.71 48.37-6.46L48.37-6.46L48.37-6.46Q48.90-5.20 49.78-4.48L49.78-4.48L49.78-4.48Q50.65-3.77 51.70-3.44L51.70-3.44L51.70-3.44Q52.75-3.10 53.99-3.10L53.99-3.10L53.99-3.10Q55.72-3.10 57.53-3.71L57.53-3.71L57.53-3.71Q59.34-4.32 60.80-5.43L60.80-5.43L60.80-5.43Q61.89-4.15 61.89-2.91L61.89-2.91L61.89-2.91Q61.89-2.09 60.80-1.30L60.80-1.30L60.80-1.30Q59.72-0.51 57.87 0L57.87 0L57.87 0Q56.02 0.51 54.02 0.51L54.02 0.51L54.02 0.51Q52.39 0.51 50.91 0.19L50.91 0.19L50.91 0.19Q49.44-0.13 48.02-0.94L48.02-0.94L48.02-0.94Q46.60-1.75 45.57-2.99L45.57-2.99L45.57-2.99Q44.54-4.23 43.91-6.17L43.91-6.17L43.91-6.17Q43.28-8.11 43.28-10.57L43.28-10.57L43.28-10.57Q43.28-12.97 44.20-14.97L44.20-14.97L44.20-14.97Q45.11-16.97 46.62-18.23L46.62-18.23L46.62-18.23Q48.12-19.50 49.98-20.19L49.98-20.19L49.98-20.19Q51.83-20.87 53.80-20.87L53.80-20.87L53.80-20.87Q55.24-20.87 56.58-20.51L56.58-20.51L56.58-20.51Q57.91-20.15 59.09-19.38L59.09-19.38L59.09-19.38Q60.27-18.60 61.15-17.49L61.15-17.49L61.15-17.49Q62.02-16.38 62.53-14.78L62.53-14.78L62.53-14.78Q63.03-13.18 63.03-11.25ZM47.87-12.40L59.19-12.40L59.19-12.40Q59.01-15.04 57.52-16.42L57.52-16.42L57.52-16.42Q56.02-17.81 53.95-17.81L53.95-17.81L53.95-17.81Q51.74-17.81 49.94-16.33L49.94-16.33L49.94-16.33Q48.14-14.85 47.87-12.40L47.87-12.40ZM81.73-5.05L81.73-5.05L81.73-5.05Q81.73-3.12 80.56-1.86L80.56-1.86L80.56-1.86Q79.39-0.59 77.47-0.04L77.47-0.04L77.47-0.04Q75.54 0.51 72.92 0.51L72.92 0.51L72.92 0.51Q68.88 0.51 66.60-0.65L66.60-0.65L66.60-0.65Q64.33-1.81 64.33-4.21L64.33-4.21L64.33-4.21Q64.33-6.93 67.66-6.93L67.66-6.93L67.66-6.93Q68.19-6.93 68.36-6.72L68.36-6.72L68.36-6.72Q68.54-6.51 68.54-5.92L68.54-5.92L68.54-3.33L68.54-3.33Q69.24-2.95 70.62-2.74L70.62-2.74L70.62-2.74Q72.00-2.53 73.41-2.53L73.41-2.53L73.41-2.53Q75.09-2.53 76.18-3.23L76.18-3.23L76.18-3.23Q77.28-3.92 77.28-5.14L77.28-5.14L77.28-5.14Q77.28-6.00 76.72-6.67L76.72-6.67L76.72-6.67Q76.17-7.35 75.28-7.77L75.28-7.77L75.28-7.77Q74.38-8.19 73.23-8.62L73.23-8.62L73.23-8.62Q72.08-9.05 70.89-9.41L70.89-9.41L70.89-9.41Q69.70-9.77 68.55-10.32L68.55-10.32L68.55-10.32Q67.39-10.87 66.50-11.52L66.50-11.52L66.50-11.52Q65.60-12.17 65.05-13.22L65.05-13.22L65.05-13.22Q64.50-14.26 64.50-15.58L64.50-15.58L64.50-15.58Q64.50-17.27 65.76-18.51L65.76-18.51L65.76-18.51Q67.01-19.75 68.83-20.30L68.83-20.30L68.83-20.30Q70.65-20.85 72.73-20.85L72.73-20.85L72.73-20.85Q81.26-20.85 81.26-15.90L81.26-15.90L81.26-15.90Q81.26-15.60 81.15-15.25L81.15-15.25L81.15-15.25Q81.05-14.91 80.75-14.45L80.75-14.45L80.75-14.45Q80.46-14.00 79.76-13.70L79.76-13.70L79.76-13.70Q79.07-13.41 78.06-13.41L78.06-13.41L78.06-13.41Q77.87-13.41 77.74-13.44L77.74-13.44L77.74-13.44Q77.62-13.48 77.55-13.53L77.55-13.53L77.55-13.53Q77.49-13.58 77.44-13.70L77.44-13.70L77.44-13.70Q77.39-13.83 77.38-13.88L77.38-13.88L77.38-13.88Q77.37-13.94 77.34-14.14L77.34-14.14L77.34-14.14Q77.31-14.34 77.31-14.42L77.31-14.42L77.05-17.08L77.05-17.08Q76.78-17.35 75.40-17.67L75.40-17.67L75.40-17.67Q74.02-18.00 73.03-18.00L73.03-18.00L73.03-18.00Q71.09-18.00 70.14-17.27L70.14-17.27L70.14-17.27Q69.20-16.55 69.20-15.44L69.20-15.44L69.20-15.44Q69.20-14.64 69.90-14.03L69.90-14.03L69.90-14.03Q70.59-13.43 71.70-13.00L71.70-13.00L71.70-13.00Q72.80-12.57 74.13-12.15L74.13-12.15L74.13-12.15Q75.47-11.73 76.80-11.15L76.80-11.15L76.80-11.15Q78.13-10.57 79.24-9.83L79.24-9.83L79.24-9.83Q80.34-9.08 81.04-7.86L81.04-7.86L81.04-7.86Q81.73-6.63 81.73-5.05ZM90.40-11.50L90.40-11.50L90.40-6.53L90.40-6.53Q91.01-4.93 92.72-3.84L92.72-3.84L92.72-3.84Q94.43-2.74 96.60-2.74L96.60-2.74L96.60-2.74Q98.91-2.74 100.58-4.71L100.58-4.71L100.58-4.71Q102.26-6.68 102.26-10.19L102.26-10.19L102.26-10.19Q102.26-13.69 100.47-15.65L100.47-15.65L100.47-15.65Q98.68-17.61 96.22-17.61L96.22-17.61L96.22-17.61Q95.16-17.61 94.13-17.22L94.13-17.22L94.13-17.22Q93.10-16.83 92.26-16.09L92.26-16.09L92.26-16.09Q91.43-15.35 90.91-14.16L90.91-14.16L90.91-14.16Q90.40-12.97 90.40-11.50ZM90.40-25.67L90.40-25.67L90.40-17.67L90.40-17.67Q91.33-19.20 93.07-20.02L93.07-20.02L93.07-20.02Q94.81-20.85 96.62-20.85L96.62-20.85L96.62-20.85Q98.55-20.85 100.34-20.17L100.34-20.17L100.34-20.17Q102.13-19.48 103.57-18.20L103.57-18.20L103.57-18.20Q105.00-16.91 105.87-14.83L105.87-14.83L105.87-14.83Q106.74-12.76 106.74-10.19L106.74-10.19L106.74-10.19Q106.74-7.62 105.88-5.53L105.88-5.53L105.88-5.53Q105.02-3.45 103.58-2.15L103.58-2.15L103.58-2.15Q102.15-0.86 100.38-0.17L100.38-0.17L100.38-0.17Q98.60 0.51 96.68 0.51L96.68 0.51L96.68 0.51Q92.40 0.51 89.03-2.69L89.03-2.69L87.12-0.78L87.12-0.78Q86.09 0.13 85.14 0.13L85.14 0.13L85.14 0.13Q84.38 0.13 83.88-0.36L83.88-0.36L83.88-0.36Q83.39-0.86 83.39-1.60L83.39-1.60L83.39-1.60Q83.39-2.74 84.46-3.73L84.46-3.73L86.07-5.22L86.07-23.02L86.07-23.02Q86.07-24.03 85.49-24.45L85.49-24.45L85.49-24.45Q84.91-24.87 83.26-24.95L83.26-24.95L83.26-24.95Q83.01-25.00 82.94-25.19L82.94-25.19L82.94-25.19Q82.88-25.38 82.88-26.01L82.88-26.01L82.88-26.01Q82.88-26.98 83.08-27.73L83.08-27.73L83.08-27.73Q83.29-28.47 83.50-28.58L83.50-28.58L83.50-28.58Q85.08-28.37 86.53-28.37L86.53-28.37L86.53-28.37Q87.39-28.37 88.34-28.48L88.34-28.48L88.34-28.48Q89.29-28.58 89.35-28.58L89.35-28.58L89.35-28.58Q90.02-28.58 90.22-28.25L90.22-28.25L90.22-28.25Q90.42-27.92 90.42-26.72L90.42-26.72L90.42-26.72Q90.42-26.58 90.41-26.23L90.41-26.23L90.41-26.23Q90.40-25.88 90.40-25.67ZM112.54-23.71L112.54-23.71L112.54-23.71Q112.09-23.71 111.61-23.79L111.61-23.79L111.61-23.79Q111.13-23.88 110.57-24.11L110.57-24.11L110.57-24.11Q110.01-24.34 109.66-24.83L109.66-24.83L109.66-24.83Q109.31-25.33 109.31-26.01L109.31-26.01L109.31-26.01Q109.31-28.35 112.47-28.35L112.47-28.35L112.47-28.35Q113.36-28.35 113.98-28.13L113.98-28.13L113.98-28.13Q114.60-27.90 114.90-27.52L114.90-27.52L114.90-27.52Q115.19-27.14 115.31-26.77L115.31-26.77L115.31-26.77Q115.42-26.41 115.42-25.99L115.42-25.99L115.42-25.99Q115.42-25.14 114.89-24.58L114.89-24.58L114.89-24.58Q114.35-24.03 113.75-23.87L113.75-23.87L113.75-23.87Q113.15-23.71 112.54-23.71ZM115.69-18.66L115.69-18.66L115.69-4.78L115.69-4.78Q115.69-4.49 115.71-4.33L115.71-4.33L115.71-4.33Q115.74-4.17 115.85-3.96L115.85-3.96L115.85-3.96Q115.95-3.75 116.22-3.65L116.22-3.65L116.22-3.65Q116.49-3.54 116.90-3.54L116.90-3.54L116.90-3.54Q117.63-3.54 118.14-3.31L118.14-3.31L118.14-3.31Q118.66-3.08 118.66-2.63L118.66-2.63L118.66-2.63Q118.66-0.40 118.03 0.15L118.03 0.15L118.03 0.15Q116.31 0 113.84 0L113.84 0L113.84 0Q111.27 0 109.04 0.15L109.04 0.15L109.04 0.15Q108.41-0.42 108.41-2.63L108.41-2.63L108.41-2.63Q108.41-3.08 108.93-3.31L108.93-3.31L108.93-3.31Q109.44-3.54 110.16-3.54L110.16-3.54L110.16-3.54Q110.91-3.54 111.13-3.86L111.13-3.86L111.13-3.86Q111.36-4.17 111.36-4.74L111.36-4.74L111.36-14.97L111.36-14.97Q111.36-15.98 110.78-16.40L110.78-16.40L110.78-16.40Q110.20-16.81 108.54-16.89L108.54-16.89L108.54-16.89Q108.30-16.95 108.23-17.14L108.23-17.14L108.23-17.14Q108.16-17.33 108.16-17.96L108.16-17.96L108.16-17.96Q108.16-18.93 108.37-19.67L108.37-19.67L108.37-19.67Q108.58-20.41 108.79-20.53L108.79-20.53L108.79-20.53Q110.26-20.32 111.63-20.32L111.63-20.32L111.63-20.32Q112.54-20.32 113.55-20.42L113.55-20.42L113.55-20.42Q114.56-20.53 114.62-20.53L114.62-20.53L114.62-20.53Q115.29-20.53 115.49-20.20L115.49-20.20L115.49-20.20Q115.69-19.86 115.69-18.66ZM133.36-3.81L133.36-3.81L133.36-3.81Q133.93-2.72 133.93-1.77L133.93-1.77L133.93-1.77Q133.93-1.24 133.46-0.85L133.46-0.85L133.46-0.85Q133.00-0.46 132.25-0.25L132.25-0.25L132.25-0.25Q131.51-0.04 130.77 0.06L130.77 0.06L130.77 0.06Q130.03 0.15 129.32 0.15L129.32 0.15L129.32 0.15Q128.25 0.15 127.34-0.15L127.34-0.15L127.34-0.15Q126.43-0.46 125.60-1.15L125.60-1.15L125.60-1.15Q124.77-1.85 124.29-3.17L124.29-3.17L124.29-3.17Q123.82-4.49 123.82-6.32L123.82-6.32L123.82-17.37L123.00-17.37L123.00-17.37Q120.75-17.37 120.54-17.35L120.54-17.35L120.54-17.35Q119.91-17.58 119.91-18.81L119.91-18.81L119.91-18.81Q119.91-20.32 120.87-20.32L120.87-20.32L123.82-20.32L123.82-20.32Q123.89-20.93 123.96-21.91L123.96-21.91L123.96-21.91Q124.03-22.89 124.08-23.46L124.08-23.46L124.08-23.46Q124.14-24.03 124.26-24.81L124.26-24.81L124.26-24.81Q124.39-25.59 124.61-26.04L124.61-26.04L124.61-26.04Q124.83-26.49 125.17-26.93L125.17-26.93L125.17-26.93Q125.51-27.36 126.05-27.56L126.05-27.56L126.05-27.56Q126.60-27.76 127.34-27.76L127.34-27.76L127.34-27.76Q127.85-27.76 128.14-27.59L128.14-27.59L128.14-20.32L130.67-20.32L130.67-20.32Q132.94-20.32 133.05-20.41L133.05-20.41L133.05-20.41Q134.01-20.41 134.01-18.78L134.01-18.78L134.01-18.78Q134.01-17.54 133.38-17.31L133.38-17.31L133.38-17.31Q132.75-17.37 130.92-17.37L130.92-17.37L128.14-17.37L128.14-6.44L128.14-6.44Q128.14-3.28 130.20-3.28L130.20-3.28L130.20-3.28Q131.53-3.28 133.36-3.81ZM148.94-3.81L148.94-3.81L148.94-3.81Q149.51-2.72 149.51-1.77L149.51-1.77L149.51-1.77Q149.51-1.24 149.04-0.85L149.04-0.85L149.04-0.85Q148.57-0.46 147.83-0.25L147.83-0.25L147.83-0.25Q147.09-0.04 146.35 0.06L146.35 0.06L146.35 0.06Q145.60 0.15 144.90 0.15L144.90 0.15L144.90 0.15Q143.83 0.15 142.92-0.15L142.92-0.15L142.92-0.15Q142.00-0.46 141.18-1.15L141.18-1.15L141.18-1.15Q140.35-1.85 139.87-3.17L139.87-3.17L139.87-3.17Q139.39-4.49 139.39-6.32L139.39-6.32L139.39-17.37L138.58-17.37L138.58-17.37Q136.33-17.37 136.12-17.35L136.12-17.35L136.12-17.35Q135.49-17.58 135.49-18.81L135.49-18.81L135.49-18.81Q135.49-20.32 136.44-20.32L136.44-20.32L139.39-20.32L139.39-20.32Q139.47-20.93 139.54-21.91L139.54-21.91L139.54-21.91Q139.60-22.89 139.66-23.46L139.66-23.46L139.66-23.46Q139.72-24.03 139.84-24.81L139.84-24.81L139.84-24.81Q139.97-25.59 140.18-26.04L140.18-26.04L140.18-26.04Q140.40-26.49 140.75-26.93L140.75-26.93L140.75-26.93Q141.09-27.36 141.63-27.56L141.63-27.56L141.63-27.56Q142.17-27.76 142.92-27.76L142.92-27.76L142.92-27.76Q143.43-27.76 143.72-27.59L143.72-27.59L143.72-20.32L146.25-20.32L146.25-20.32Q148.52-20.32 148.63-20.41L148.63-20.41L148.63-20.41Q149.58-20.41 149.58-18.78L149.58-18.78L149.58-18.78Q149.58-17.54 148.95-17.31L148.95-17.31L148.95-17.31Q148.33-17.37 146.50-17.37L146.50-17.37L143.72-17.37L143.72-6.44L143.72-6.44Q143.72-3.28 145.77-3.28L145.77-3.28L145.77-3.28Q147.11-3.28 148.94-3.81ZM158.91-15.71L158.91-15.71L163.81-4.82L168.05-15.71L168.05-15.71Q168.15-16.00 168.15-16.22L168.15-16.22L168.15-16.22Q168.15-16.59 167.85-16.76L167.85-16.76L167.85-16.76Q167.56-16.93 167.21-16.95L167.21-16.95L167.21-16.95Q166.85-16.97 166.56-17.15L166.56-17.15L166.56-17.15Q166.26-17.33 166.26-17.73L166.26-17.73L166.26-17.86L166.26-17.86Q166.55-20.41 166.91-20.85L166.91-20.85L166.91-20.85Q168.78-20.36 170.93-20.36L170.93-20.36L170.93-20.36Q173.21-20.36 175.14-20.85L175.14-20.85L175.14-20.85Q175.88-20.51 175.88-19.04L175.88-19.04L175.88-19.04Q175.88-17.88 175.42-17.41L175.42-17.41L175.42-17.41Q174.97-16.95 173.82-16.95L173.82-16.95L173.82-16.95Q173.56-16.95 173.35-16.89L173.35-16.89L173.35-16.89Q173.14-16.83 173.01-16.78L173.01-16.78L173.01-16.78Q172.89-16.72 172.78-16.57L172.78-16.57L172.78-16.57Q172.66-16.42 172.62-16.33L172.62-16.33L172.62-16.33Q172.59-16.24 172.50-16.03L172.50-16.03L172.50-16.03Q172.42-15.82 172.38-15.75L172.38-15.75L164.76 1.81L164.76 1.81Q163.64 4.30 162.08 5.46L162.08 5.46L162.08 5.46Q160.53 6.61 158.29 6.61L158.29 6.61L158.29 6.61Q156.50 6.61 155.20 5.91L155.20 5.91L155.20 5.91Q153.91 5.22 153.91 4.34L153.91 4.34L153.91 4.34Q153.91 3.22 154.10 2.83L154.10 2.83L154.10 2.83Q154.29 2.44 154.78 2.44L154.78 2.44L154.78 2.44Q154.97 2.44 156.10 2.71L156.10 2.71L156.10 2.71Q157.24 2.99 158.21 2.99L158.21 2.99L158.21 2.99Q158.65 2.99 158.89 2.96L158.89 2.96L158.89 2.96Q159.14 2.93 159.41 2.76L159.41 2.76L159.41 2.76Q159.68 2.59 159.81 2.44L159.81 2.44L159.81 2.44Q159.94 2.29 160.23 1.79L160.23 1.79L160.23 1.79Q160.51 1.29 160.70 0.87L160.70 0.87L160.70 0.87Q160.89 0.44 161.36-0.52L161.36-0.52L161.36-0.52Q161.83-1.49 162.25-2.34L162.25-2.34L162.25-2.34Q161.54-2.34 161.20-2.47L161.20-2.47L161.20-2.47Q160.86-2.59 160.68-2.99L160.68-2.99L154.59-15.75L154.59-15.75Q154.57-15.81 154.48-16.03L154.48-16.03L154.48-16.03Q154.38-16.26 154.34-16.33L154.34-16.33L154.34-16.33Q154.31-16.40 154.18-16.56L154.18-16.56L154.18-16.56Q154.06-16.72 153.93-16.78L153.93-16.78L153.93-16.78Q153.81-16.83 153.61-16.89L153.61-16.89L153.61-16.89Q153.41-16.95 153.14-16.95L153.14-16.95L153.14-16.95Q152.00-16.95 151.54-17.41L151.54-17.41L151.54-17.41Q151.09-17.88 151.09-19.04L151.09-19.04L151.09-19.04Q151.09-20.51 151.83-20.85L151.83-20.85L151.83-20.85Q153.56-20.36 156.04-20.36L156.04-20.36L156.04-20.36Q158.55-20.36 160.44-20.85L160.44-20.85L160.44-20.85Q160.80-20.41 161.08-17.86L161.08-17.86L161.08-17.73L161.08-17.73Q161.08-17.33 160.72-17.14L160.72-17.14L160.72-17.14Q160.36-16.95 159.94-16.93L159.94-16.93L159.94-16.93Q159.52-16.91 159.16-16.75L159.16-16.75L159.16-16.75Q158.80-16.59 158.80-16.22L158.80-16.22L158.80-16.22Q158.80-15.92 158.91-15.71Z" fill="url(#editing-outline-gradient)"></path></g></g><style>text {
  font-size: 64px;
  font-family: Arial Black;
  dominant-baseline: central;
  text-anchor: middle;
}</style></svg>